<svg width="59" height="54" viewBox="0 0 59 54" fill="none" xmlns="http://www.w3.org/2000/svg">
<path d="M7.30231 13.0774L13.6263 16.8969V24.5357L7.30231 28.3552L0.978323 24.5357V16.8969L7.30231 13.0774Z" fill="#D9D9D9"/>
<path d="M21.9069 13.0774L28.2309 16.8969V24.5357L21.9069 28.3552L15.5829 24.5357V16.8969L21.9069 13.0774Z" fill="#80BE4F"/>
<path d="M36.5115 13.0774L42.8355 16.8969V24.5357L36.5115 28.3552L30.1876 24.5357V16.8969L36.5115 13.0774Z" fill="#D9D9D9"/>
<path d="M51.1161 13.0774L57.4401 16.8969V24.5357L51.1161 28.3552L44.7922 24.5357V16.8969L51.1161 13.0774Z" fill="#D9D9D9"/>
<path d="M43.8138 0.255005L50.1378 4.07445V11.7133L43.8138 15.5328L37.4899 11.7133V4.07445L43.8138 0.255005Z" fill="#7C35B4"/>
<path d="M29.2092 0.255005L35.5332 4.07445V11.7133L29.2092 15.5328L22.8852 11.7133V4.07445L29.2092 0.255005Z" fill="#D9D9D9"/>
<path d="M14.6046 0.255005L20.9286 4.07445V11.7133L14.6046 15.5328L8.28063 11.7133V4.07445L14.6046 0.255005Z" fill="#C95656"/>
<path d="M14.6046 25.8998L20.9286 29.7193V37.3581L14.6046 41.1776L8.28063 37.3581V29.7193L14.6046 25.8998Z" fill="#D67EBD"/>
<path d="M29.2092 25.8998L35.5332 29.7193V37.3581L29.2092 41.1776L22.8852 37.3581V29.7193L29.2092 25.8998Z" fill="#1A8EB3"/>
<path d="M21.9069 38.7222L28.2309 42.5417V50.1805L21.9069 54L15.5829 50.1805V42.5417L21.9069 38.7222Z" fill="#D9D9D9"/>
<path d="M36.0982 38.7222L42.4222 42.5417V50.1805L36.0982 54L29.7742 50.1805V42.5417L36.0982 38.7222Z" fill="#D9D9D9"/>
<path d="M43.8138 25.8998L50.1378 29.7193V37.3581L43.8138 41.1776L37.4899 37.3581V29.7193L43.8138 25.8998Z" fill="#D9D9D9"/>
</svg>
